<svg width="1246" height="739" viewBox="0 0 1246 739" fill="none" xmlns="http://www.w3.org/2000/svg">
<path fill-rule="evenodd" clip-rule="evenodd" d="M629.001 1.09275e-05C640.046 1.21236e-05 649.001 8.95433 649.001 20L649 368.241C649 494.181 751.095 596.269 877.034 596.269C1002.97 596.269 1105.07 494.181 1105.07 368.241C1105.07 242.302 1002.97 140.211 877.034 140.211L806.439 140.211C795.393 140.211 786.439 131.256 786.439 120.211V20.0021C786.439 8.95637 795.393 0.00204553 806.439 0.00204925L877.042 0.00207303C1080.81 0.00210355 1246 165.187 1246 368.958C1246 572.728 1080.81 737.911 877.042 737.911C673.271 737.911 508.082 572.728 508.082 368.958V20C508.082 8.95429 517.037 -2.16562e-06 528.082 0L629.001 1.09275e-05ZM352.267 1.75271C363.237 1.61959 372.074 10.3646 372.074 21.3354V122.665C372.074 133.832 362.927 142.962 351.759 142.956C344.532 142.953 338.03 142.951 337.5 142.951C215.5 142.951 140.735 244.901 140.735 370.669C140.735 496.437 242.691 598.387 368.458 598.387H372.073C372.073 598.387 372.074 598.388 372.074 598.388C372.074 598.388 372.074 598.388 372.074 598.388H375.615C386.589 598.388 397.382 597.612 407.942 596.112C417.032 594.82 426.115 599.193 430.398 607.316C446.352 637.576 465.269 666.033 486.762 692.299C495.728 703.256 491.696 720.048 478.095 723.978C445.562 733.379 411.177 738.417 375.616 738.417H372.001C372 738.417 372 738.416 372 738.416C372 738.416 372 738.416 371.999 738.416H368.457C164.964 738.416 -1.52588e-05 573.457 0 369.964C1.52588e-05 166.47 161 2.02344 329.5 2.02344C330.017 2.02344 337.671 1.93028 346.352 1.82462C348.295 1.80098 350.29 1.7767 352.267 1.75271Z" fill="#4F4F4F"/>
</svg>
