<svg width="240" height="142" viewBox="0 0 240 142" fill="none" xmlns="http://www.w3.org/2000/svg">
<path d="M71.6675 0.293175C71.4356 0.290949 71.2034 0.289833 70.9709 0.289833C31.7748 0.28983 3.30399e-06 32.0127 0 71.1449C-3.30399e-06 110.277 31.7748 142 70.9709 142H71.6675V115.072H70.9711C46.7462 115.072 27.108 95.4661 27.108 71.2807C27.108 47.0953 46.7462 27.4891 70.9711 27.4891C71.2037 27.4891 71.4358 27.4909 71.6675 27.4945V0.293175Z" fill="black" fill-opacity="0.66"/>
<path d="M125.008 4.13195e-06L97.865 0V70.9513C97.865 110.137 129.683 141.903 168.933 141.903C208.182 141.903 240 110.137 240 70.9513C240 31.7659 208.182 1.24492e-05 168.933 8.29944e-06L151.481 6.64633e-06V26.9622L168.931 26.9622C193.189 26.9622 212.854 46.5951 212.854 70.8136C212.854 95.032 193.189 114.665 168.931 114.665C144.673 114.665 125.008 95.032 125.008 70.8136L125.008 4.13195e-06Z" fill="black" fill-opacity="0.66"/>
</svg>
